<svg id="Layer_1" xmlns="http://www.w3.org/2000/svg" xmlns:xlink="http://www.w3.org/1999/xlink" viewBox="0 0 739.1 242.9"><style>.st0{fill:#fff}.st1{fill:#21409a}.st2{fill:#ddb10a}</style><symbol id="a" viewBox="-35.7 -21.5 71.3 43.1"><path class="st0" d="M1.2-16.4v31.6c5.5-4 15.8-6.5 24.3-3.4V-20C17.3-23.2 6-21.1 1.2-16.4zM-25.5-20v31.9c8.5-3.1 18.9-.6 24.3 3.4v-31.6C-6-21-17.3-23.1-25.5-20z"/><path class="st0" d="M30 5V-5.4c1.4.1 5.2.9 5.7-.9-.9-2-3-2-5.6-2.2v-8.8H28v32c-11.7-2.5-20.6-1.2-27.8 4-7.1-5.3-16-6.5-27.8-4v-32H-30v8.8c-.4 0-1 .1-1.8.1 0-1.1-.1-.8-3.4-.4-.7 0-.4.9-.4 4.2 0 .2.2.4.5.4 3.3-.3 3.3-.1 3.3-1.1l1.8-.1V5c-.4 0-1 .1-1.8.1 0-1 0-.8-3.4-.4-.7 0-.4 1-.4 4.2 0 .3.2.5.4.5h.1c3.3-.3 3.3 0 3.3-1.1l1.8-.1v9.2c11.4-2.7 20.9-3.1 30 4.1 9.1-7.2 18.6-6.7 30-4.1V8.1c1.6.1 5.2.8 5.7-.9-.9-2-3.1-2-5.7-2.2z"/></symbol><path class="st1" d="M210.4 186.9c-54.3 78.9-160.6 70.3-207.3.4l19.1-17.6c38.7 63.4 130.8 63.6 169.6 0l18.6 17.2zM7.9 178.7c14-12.9 11.3-10.5 14.9-13.8 3 5.3 6.5 10.2 10.4 14.9l4.1-3.8c-7.8-9.4-13.5-20.3-16.7-32L14 161l-14 2 7.9 15.7zM214 163l-14-2-6.6-17c-3.2 11.7-8.9 22.6-16.7 32l4.1 3.8c3.9-4.7 7.3-9.6 10.4-14.9 3.6 3.4.9.9 14.9 13.8L214 163zM270.1 6.3c0 6.2.3 6.5-.8 6.4-2.8-.3-2.8.4-2.8-2h-7.3v29.2c1.4.1 2-.1 2 .9-.4 3.7 1.7 2.8-8.7 2.8-.4 0-.5-.2-.5-.7.3-3.2-.4-2.7 2-2.9V10.7h-7c-.1 1.4.2 2-.8 1.9-2.1-.2-2.8.1-2.8-.5V6.3h26.7zm36.2 34.4c-.2 2.1.1 2.8-.5 2.8-8.8 0-8.8.3-8.7-.7.3-3.2-.5-2.7 1.9-2.9V27h-16.7v12.9c1.3.1 2-.1 1.9.9-.3 2.1 0 2.8-.6 2.8-8.9 0-8.9.3-8.8-.8.3-3.2-.4-2.7 1.9-2.9v-30c-1.4-.1-2 .1-2-.9.2-2.2-.1-2.8.5-2.8 8.8 0 8.8-.3 8.7.7-.3 3.2.4 2.7-1.9 2.9v12.6h16.7V9.9c-1.4-.1-2 .1-2-.9.2-2.2-.1-2.8.5-2.8 8.8 0 8.8-.3 8.7.8-.4 3.2.4 2.7-2 2.9v30c1.3.1 2-.1 1.9.9l.5-.1zm30.1-3.4c.6 0 .4.5.4 6.2-25.3 0-23.9.4-23.8-.7.3-3.2-.4-2.7 1.9-2.9V10c-1.4-.1-2 .1-1.9-.9.2-2.1-.1-2.8.5-2.8h22.4c0 6.3.2 6.5-.8 6.4-3.2-.3-2.7.4-2.9-1.9h-11.9v11.3h13.5v4.4h-13.5V39H333c.1-1.3-.1-2 .9-1.9l2.5.2zm55.8-30.2c-.3 2.9.5 2.9-2.1 2.9v19.9c0 9.7-3.8 14.3-13.5 14.3-16 0-13.3-9.8-13.3-34.2-1.3-.1-2 .1-1.9-.9.2-2.1-.1-2.8.5-2.8 8.8 0 8.8-.3 8.7.8-.3 3.2.5 2.7-1.9 2.9v20.8c0 6 1.8 9.2 7.8 9.2 6.8 0 8.3-4.1 8.3-9.2V9.9c-1.3-.1-2 .1-1.9-.9.3-2.1 0-2.8.6-2.8 8.8 0 8.9-.3 8.8.8l-.1.1zm40.2 0c-.3 3 .5 2.9-2.4 2.9v33.6h-3.6c-.2 0-.4-.1-.5-.3l-19.6-27.4V40c.6 0 1.3 0 1.9.1.3 0 .5.3.4.8-.4 3.6 1.8 2.8-8.7 2.8-.4 0-.6-.3-.5-.8.3-3.2-.5-2.7 1.9-2.9V9.9c-1.4-.1-2 .1-1.9-.9.4-3.6-1.3-2.8 5.8-2.8.2 0 .5.1.6.3l19.2 27V9.9c-1.4-.1-2 .1-1.9-.9.2-2.2 0-2.8.5-2.8 8.8.1 8.9-.2 8.8.9zm16.9 33.6c-.2 2.2.1 2.8-.5 2.8-8.8 0-8.8.3-8.7-.7.3-3.2-.4-2.7 1.9-2.9V10c-1.4-.1-2 .1-2-.9.2-2.2 0-2.8.5-2.8 8.8 0 8.8-.3 8.7.8-.4 3.2.4 2.7-2 2.9v29.9c1.3.2 2-.1 1.9.9l.2-.1zm39.1-33.6c-.3 3.2.4 2.7-1.9 2.9-12.9 35.2-11.8 33.6-13.4 33.6l-4-.1c-.4 0-12.6-33.1-12.8-33.4-1.3-.1-2 .1-1.9-.9.3-2.2 0-2.8.5-2.8 9 0 9-.3 8.9.7-.3 3.2.4 2.7-1.9 2.9l9.6 27h.2l9.6-27.1c-1.3-.1-2 .1-1.9-.9.3-2.2 0-2.8.6-2.8 8.7 0 8.7-.3 8.6.7l-.2.2zm28.5 30.2c.6 0 .4.5.4 6.2-25.3 0-23.9.4-23.8-.7.3-3.2-.4-2.7 1.9-2.9V10c-1.4-.1-2 .1-1.9-.9.2-2.1-.1-2.8.5-2.8h22.4c0 6.3.2 6.5-.8 6.4-3.2-.3-2.7.4-2.9-1.9h-11.9v11.3h13.5v4.4h-13.5V39h12.7c.1-1.3-.2-2 .8-1.9l2.6.2zm34.3 3.4c-.2 2.2.1 2.8-.5 2.8h-5.4l-8.1-14.3h-5.3v10.7c1.4.1 2-.1 2 .9-.2 2.2.1 2.8-.5 2.8-8.8 0-8.8.3-8.7-.7.4-3.2-.4-2.7 2-2.9V10c-1.4-.1-2 .1-1.9-.9.3-2.1 0-2.8.6-2.8 12.7 0 24.6-1.7 24.6 11.1.2 4.7-2.7 9-7.1 10.7l6.8 11.8c1.3.2 2-.1 1.9.9l-.4-.1zm-7.1-23.3c0-7.7-6.5-6.9-12.3-6.9v14.4c5.1 0 12.4.9 12.4-7.4l-.1-.1zm36.5 15.9c0 11-13.8 12.5-23.5 8.4 0-6.2-.3-6.5.9-6.4 4 .3 3.4-.6 3.5 3.2 6 1.4 13.8 1.5 13.8-4.6 0-4.3-1.6-5.1-9-7.8-5.3-2-9-4.8-9-10.1 0-9.9 11.6-11.4 21.2-9v6.3c0 1-1.5.6-3.8.4-.7 0-.5-1-.5-3-1.3-.2-2.5-.3-3.8-.3-4.4 0-7.3 2-7.3 5.3 0 8.5 17.8 4.7 17.8 17.5l-.3.1zm16 7.4c-.2 2.1.1 2.8-.5 2.8-8.8 0-8.8.3-8.7-.7.3-3.2-.4-2.7 2-2.9V10c-1.3-.1-2 .1-1.9-.9.3-2.2 0-2.8.6-2.8 8.8 0 8.9-.3 8.8.8-.3 3.2.4 2.7-1.9 2.9v29.9c1.4.2 2-.1 1.9.9l-.3-.1zm32.5-34.4c0 6.2.3 6.4-.8 6.3-2.9-.3-2.9.4-2.9-2h-7.3v29.2c1.3.1 2-.1 1.9.9-.4 3.6 1.8 2.8-8.7 2.8-.4 0-.6-.3-.5-.7.3-3.2-.4-2.7 1.9-2.9V10.7H606c-.1 1.4.1 2-.9 1.9-2.1-.2-2.8.1-2.8-.5V6.3h26.8zm32.8.7c-.3 3.2.4 2.7-1.9 2.9l-10.5 20.5v9.5c1.3.1 2-.1 1.9.9-.2 2.2.1 2.8-.5 2.8-8.8 0-8.8.3-8.7-.8.3-3.2-.4-2.7 1.9-2.9v-9.5L633.8 9.9c-1.3-.1-2 .1-1.9-.9.2-2.1-.1-2.8.5-2.8 8.8 0 8.8-.3 8.7.8-.3 3.2.4 2.7-1.9 2.9l7.5 15.4h.2l7.7-15.5c-1.3-.1-2 .1-1.9-.9.2-2.2-.1-2.8.5-2.8 8.7 0 8.7-.3 8.6.7l.1.2zm48 17.9c0 12.7-5.6 18.8-15 18.8s-15-6.3-15-18.9c0-9 3.4-18.9 15.1-18.9 10.1.1 15 7.8 14.9 19zm-24.3-.1c0 6.3 1.5 14.4 9.3 14.4 6.5 0 9.4-5.6 9.4-14.5 0-6.4-1.6-14.3-9.3-14.3s-9.4 8.2-9.4 14.4zm53-18.5c0 6.3.3 6.5-.8 6.4-3.2-.3-2.7.4-2.9-1.9h-12v11.4h13v4.4h-13V40c1.3.1 2-.1 1.9.9-.3 2.1 0 2.8-.6 2.8-8.9 0-8.9.3-8.8-.8.3-3.2-.4-2.7 1.9-2.9V9.9c-1.4-.1-2 .1-2-.9.2-2.2-.1-2.8.5-2.8l22.8.1zM345 60.8c.9 0 1.3.6 1.2 1.7-.7 7 .9 6-4.1 6.4l-17.9 70.5c-.5 2.2-2.5 3.7-4.8 3.7l-8.2-.3c-2.1 0-.7 3.3-16.3-63.9h-.1l-14.2 59.3c-.5 2.2-1.9 5.1-5.6 5l-8-.3c-2 0-.5 3.8-19.3-73.9l-3.1-.2c-.7 0-1-.7-1-1.7.5-4.6-.2-6.1 1.2-6.1H262c.9 0 1.3.7 1.2 1.7-.7 7 .9 6-4.1 6.4l13.6 61.9h.1L288 66c.9-3.7 2.6-5 5.2-4.9 7 .3 7.3 0 7.9 2.4l15.4 67.6h.1l14.2-62-3.2-.2c-.8 0-1.1-.7-1-1.7.5-4.7-.2-6.1 1.1-6.1l17.3-.3zm59.6 69.4v12.9h-51.4c-.9 0-1.3-.6-1.2-1.7.7-7-1-6 4.2-6.3V68.9l-3.3-.2c-.7 0-1.1-.7-1-1.7.5-4.7-.2-6.2 1.2-6.2h49.6v12.9c0 .8-.6 1.3-1.7 1.2-7-.7-6 1-6.4-4.2h-26.4v25.1h29.9v9.8h-29.9v27.6h28.2l.2-3.3c0-.8.7-1.1 1.7-1 5.9.4 6.3.1 6.3 1.3zm60-9.7c0 24.3-30.5 27.7-52.1 18.6v-12.8c0-1 .7-1.5 2-1.4 6.5.5 7.2.1 7.4 1.4l.2 5.7c13.3 3.1 30.5 3.3 30.5-10.3 0-9.4-3.6-11.3-19.9-17.2-11.9-4.4-20-10.5-20-22.3 0-21.9 25.4-25.2 46.8-19.9v13.9c0 2-2.1 1.4-8.4 1-1.3 0-1.1-.9-1.3-6.7-2.8-.3-5.6-.5-8.4-.5-9.9 0-16.4 4.6-16.4 11.9 0 19 39.4 10.4 39.4 38.7l.2-.1zM528 60.8v12.9c0 .8-.6 1.3-1.7 1.2-4.9-.5-5.9.2-6.2-1.2 0-.2-.2-3-.2-3.2h-16.1V135c5.1.3 4.4-.9 3.9 7.2 0 1.2.4.9-19 .9-1.6 0-1.2-1.6-.9-7 0-1 1.2-.9 3.9-1.1V70.6h-15c-.3 5.1.9 4.4-7.2 3.9-1.2 0-.9.2-.9-13.7H528zm60.3 69.4v12.9h-51.4c-.8 0-1.3-.6-1.2-1.7.7-7-1-6 4.2-6.3V68.9l-3.2-.2c-.7 0-1-.7-1-1.7.5-4.7-.2-6.2 1.2-6.2h49.7v12.9c0 .8-.6 1.3-1.7 1.2-7-.7-6 1-6.3-4.2h-26.4v25.1H582v9.8h-29.9v27.6h28.2l.2-3.3c0-.8.7-1.1 1.7-1 5.7.4 6.2.1 6.1 1.3zm68.2 5.1c.8 0 1.1.7 1 1.7-.5 4.7.2 6.1-1.1 6.1h-12.1l-18-31.8h-11.7v23.8l3.3.2c.8 0 1.1.8 1 1.7-.5 4.7.2 6.2-1.2 6.2h-18.2c-.8 0-1.2-.6-1.1-1.7.7-7-1-6 4.3-6.3V68.9l-3.3-.2c-.7 0-1-.7-1-1.7.6-4.6-.2-6.2 1.2-6.2h24c20.7 0 30.5 7.8 30.5 24.6 0 10.7-5.6 19.8-15.7 23.7l15.1 26 3 .2zm-14.7-49.9c0-17-14.4-15.3-27.2-15.3v31.7c11.1.1 27.3 2.1 27.2-16.4zm96.1-24.6c.9 0 1.3.6 1.2 1.7-.5 4.9.2 5.9-1.1 6.1-1.3.1-2.7.2-4 .2V143h-8c-1 0 2 3.8-44.5-61.3V135c1.4 0 2.9.1 4.3.2.7 0 1.1.8 1 1.7-.5 4.7.2 6.2-1.2 6.2h-18.2c-.8 0-1.2-.6-1.1-1.7.7-7-1-6 4.3-6.3V68.9l-3.3-.2c-.7 0-1-.7-1-1.7.6-4.7-.2-6.2 1.2-6.2 13.2 0 12.3-.3 13 .7l42.3 59.4v-52l-3.3-.2c-.7 0-1-.7-1-1.7.5-4.7-.2-6.2 1.2-6.2h18.2zM307 225.1c-.4 3.7.1 5.3-.9 5.3h-15.9c-.7 0-1.1-.5-1-1.4.6-6-.8-5.1 3.5-5.4l-3.5-10.1h-28.8l-3.4 10c2.9.2 3.8-.1 3.6 1.6-.5 4 .1 5.2-1 5.2h-15.3c-.8 0-1.1-.6-1-1.5.6-6-.9-5.2 3.5-5.5l20.3-56.6c-2.8-.2-3.8.1-3.6-1.7.4-4-.2-5.3 1-5.3H279l24.3 63.5c2.8.1 3.7-.2 3.5 1.6l.2.3zM286.3 205l-11.8-33.5h-.1L263.3 205h23zm77.4-45.1c.7 0 1.1.5 1 1.4-.4 4.2.1 5.1-1 5.3-.4 0-2.5.2-2.9.2v37.6c0 18.4-7.2 27-25.5 27-17.5 0-25.1-5.9-25.1-27v-37.5c-2.9-.2-3.8.2-3.6-1.6.4-4-.2-5.2 1-5.2h15.5c.7 0 1.1.6 1 1.5-.6 6 .8 5.2-3.6 5.5v39.4c0 11.3 3.4 17.4 14.8 17.4 12.7 0 15.6-7.8 15.6-17.3V167c-4.3-.3-3.8.8-3.4-6.2 0-.4.2-.7.6-.7h.1l15.5-.2zm51.5 51.1c0 20.9-26.2 23.7-44.5 15.9v-11c0-.8.7-1.3 1.8-1.2 5.5.5 6.2 0 6.4 1.2l.2 4.9c11.4 2.7 26.2 2.8 26.2-8.8 0-8.1-3-9.7-17-14.7-10.1-3.8-17.1-9-17.1-19.1 0-18.8 21.7-21.6 40-17.1V173c0 1.7-1.8 1.2-7.2.8-1.1 0-.9-.8-1.1-5.7-2.4-.3-4.7-.4-7.1-.5-8.4 0-14 3.9-14 10.2.1 16.3 33.8 9 33.8 33.1h-.4zm55.5-51.1V171c0 .7-.6 1.1-1.5 1-4.2-.4-5.1.1-5.3-1l-.2-2.7H450v55.2c4.3.3 3.8-.8 3.4 6.2 0 1 .4.7-16.2.7-1.4 0-1-1.3-.7-6 0-.4.3-.7.7-.7l2.6-.2v-55.2H427c-.3 4.3.8 3.8-6.2 3.4-1 0-.7.1-.7-11.7l50.6-.1zm57.4 65.2c-.5 4 .1 5.3-1 5.3h-10.4l-15.4-27.2h-10v20.3c2.9.2 3.8-.1 3.6 1.6-.5 4 .1 5.3-1 5.3h-15.5c-.8 0-1.1-.5-1-1.4.6-6-.8-5.1 3.6-5.4V167c-2.9-.2-3.8.1-3.7-1.6.4-4-.2-5.3 1-5.3 24 0 46.5-3.1 46.5 21.1 0 9.1-4.8 17-13.5 20.2l12.9 22.2c2.8.2 3.8-.1 3.6 1.6l.3-.1zM514.7 181c0-14.6-12.4-13.1-23.3-13.1V195c9.3.1 23.3 1.8 23.3-14zm81.2 44.1c-.4 3.7.1 5.3-.9 5.3h-15.9c-.7 0-1.1-.5-1-1.4.6-6-.8-5.1 3.5-5.4l-3.5-10h-28.7l-3.4 10c2.9.2 3.9-.1 3.7 1.7-.4 4 .2 5.3-1 5.3h-15.4c-.7 0-1.1-.5-1-1.4.6-6-.8-5.1 3.6-5.4l20.3-56.6c-2.8-.2-3.7.1-3.5-1.6.5-4-.1-5.2 1-5.2H568l24.3 63.5c2.8.2 3.8-.1 3.6 1.6v-.4zM575.2 205l-11.8-33.5h-.1L552.2 205h23zm71.4 14.3v11.1h-44c-.7 0-1.1-.5-1-1.4.6-6-.8-5.1 3.6-5.4V167c-2.9-.2-3.8.1-3.6-1.6.4-4-.2-5.3 1-5.3h15.5c.7 0 1.1.5 1 1.4-.6 6 .8 5.1-3.6 5.4V222h24.3c.2-2.9-.1-3.8 1.7-3.7 4.5.2 5.3 0 5.3 1h-.2zm23 5.8c-.5 4 .2 5.3-1 5.3H653c-.7 0-1.1-.5-1-1.4.6-6-.8-5.1 3.6-5.4V167c-2.9-.2-3.8.1-3.6-1.6.4-4-.2-5.3 1-5.3h15.5c.7 0 1.1.5 1 1.4-.6 6 .8 5.1-3.6 5.4v56.6c2.9.1 3.9-.2 3.7 1.6zm69.5 0c-.4 3.8.1 5.3-.9 5.3h-15.9c-.7 0-1.1-.5-1-1.4.6-6-.8-5.1 3.5-5.4l-3.5-10.1h-28.8l-3.4 10.1c2.9.2 3.8-.1 3.6 1.6-.5 4 .1 5.3-1 5.3h-15.3c-.8 0-1.1-.5-1-1.4.6-6-.8-5.1 3.5-5.4l20.3-56.6c-2.8-.1-3.8.2-3.6-1.6.4-4-.2-5.2 1-5.2H711l24.3 63.5c2.8.2 3.7-.1 3.5 1.7l.3-.4zM718.4 205l-11.8-33.5h-.1L695.3 205h23.1zM189.7 6.3H24.4v59.9c.3 18.4-4 91.6 82.6 142.8 86.7-51.2 82.3-124.3 82.6-142.8l.1-59.9z"/><path class="st1" d="M185.9 6.3H28.2v59.9c.3 18.4-3.8 91.6 78.8 142.8 82.7-51.2 78.5-124.3 78.8-142.8V6.3z"/><path class="st2" d="M189.7 6.3H24.4V0h165.3v6.3zM35.3 130.4c10.5 25.7 31.1 54.5 71.7 78.5 40.6-24 61.2-52.8 71.7-78.5L107 64.1l-71.7 66.3z"/><use xlink:href="#a" width="71.3" height="43.1" x="-35.7" y="-21.5" transform="translate(146.085 42.725) scale(1.0001)" overflow="visible"/><path class="st0" d="M111.2 155.9c5.1 2.6 13.2 5.8 16.4 1.1.5-.6.7-1.4.8-2.1-3.4 1.3-9.1 0-12.6-.9-1.1 1-2.7 1.4-4.2 1-.1.2-.2.5-.4.9zm7-26.8c-.6 1.5-1.7 2.8-3.2 3.6v1c7-3.1 22.6-11.4 22.6-19 .1-1.7-.7-3.4-2.1-4.5-3.1 7.3-10.4 14.6-17.3 18.9zm-1.1 19.8c-1.1 1.1-2.6 1.7-4.1 1.6l-.3.9c6.5 1.8 18 4.1 20.4-2.2.2-.5.3-1.1.2-1.6-.6.3-1.2.5-1.8.7-2.7.9-7.5 1.1-14.4.6zm1.7-10.1c-1 1.4-2.5 2.3-4.1 2.6 0 .3-.1.6-.1.9 8.3-.3 24.1-2 24.2-10.3 0-.9-.2-1.8-.7-2.6-3.5 4.8-13.4 7.9-19.3 9.4zm-8.8 19.1c-.2.4-.4.7-.7 1.1 3 1.7 6.2 3 9.6 3.9-3 3.5-7.9 1.4-11.7-1.1-.3.3-.5.6-.8.8 2 1.4 4.2 2.5 6.5 3.2-2.5 2-6.1.3-8.8-1.6-3.3 1.7-7 1.3-10.4-2-.1 0-.6.6-.6.6 3.9 4.3 9 3.8 10.8 2.7 3.4 2.4 8.1 4 10.6.7 2.5.4 5-.8 6.3-2.9 1.9.1 4.2-.1 4.9-1.8-4.8 1.4-10.8-1.1-15.4-3.3l-.3-.3z"/><path class="st0" d="M119.3 133.7c-.9 1.7-2.5 2.9-4.3 3.4v1c7-1.6 21.7-5.9 23.3-12.8.5-1.6.1-3.3-.9-4.5-3.9 5.1-12 10.3-18.1 12.9zm-.7 10.1c-1.2 1.3-2.8 2.1-4.6 2.2-.1.3-.1.5-.2.8 7.9.9 22.2 1.6 23.6-6.2.2-.9.1-1.7-.2-2.6-3.9 4-13.1 5.3-18.6 5.8zm-.2-21.8c-.1 2.5-1.5 4.8-3.7 6.1 0 .3.1.7.1 1 10.3-5.6 20-17.2 19.6-23.3-.2-2.7-1.6-4.9-3.4-5.7.5 6.5-8.1 17-12.6 21.9z"/><path class="st0" d="M127.6 95.4c-.1 3.3-4.6 11.5-11.8 20.6.8 1.4.4 4.4-2 6.8l.3 1.3c12.3-12 18.7-25.7 13.5-28.7z"/><path d="M74 121.5c.6 6.7-1.9 10 .2 9.7.9-2.1 2-4.2 3.3-6.2-.5-1.7-1.8-3-3.5-3.5z"/><path d="M139.9 128.1c1.8-3 1.6-6.8-.6-9.5 2-3.5.9-8.7-2.5-10.9.5-3.8-.8-8.2-4.8-9.7-.6-2.9-2.2-5.4-4.5-7.3-2.2 9.6-9.3 18.7-11.8 22.3-8 11.5-7.5 31.2-19.1 39.2 0-10.7 10.3-29.8 6.9-40.7-2.6-8.5-10.1-10.2-18-6.6-4.4 2-9.1 3.8-11.2 8.6-.8 1.8-1.2 3.7-1 5.7.1 1 1.3 1.2 1.8.2.2-.4.4-.9.4-1.4.1-.5.6-.9 1.1-.9.5.1.9.6.9 1.1 0 .2-.1.3-.2.5-.9 1.3-1.4 2.8 0 3.5 2.1.9 5 .2 7.4-5.1.8-1.5.7-3.1 1.9-4.4 2-2.3 7.7-3.8 10.2-.7 7.9 9.6-10.6 23.9-17 39.2-7.7 18.6 5.5 36.8 26.8 36.8 13.6 0 22-5.9 26.8-13-5.4-.4-10.5-2.8-14.2-6.7 1.3-.3 2.4-1.1 3-2.2 1.8-.2 4.8-.3 5.9-3.5.4-.9.6-1.9.7-2.8 1.6-1 2.6-2.7 2.5-4.6 3.2-1.3 5.2-4.5 5.1-7.9 2.6-1.3 5.4-5.8 3.5-10 2.2-2.3 2.1-6.1.4-8.7l-.4-.5zm-6.5 17.4c-4.7 2.5-14.2 1.9-19.6 1.3.1-.3.1-.5.2-.8 1.8-.2 3.4-1 4.6-2.3 5.5-.5 14.7-1.8 18.6-5.7.9 2.2-.1 5.5-3.8 7.4v.1zm-4.6 7.3c-3 1-8.9.5-16-1.5l.3-.9c1.6.1 3.1-.5 4.2-1.6 6.9.5 11.7.3 14.5-.7.6-.2 1.2-.4 1.8-.7.2 1.6-1.2 4.4-4.6 5.3l-.2.1zm-8.2 10.3c-1.3 2.2-3.8 3.3-6.3 2.9-2.5 3.3-7.2 1.6-10.6-.7-1.4.9-6.6 1.8-10.7-2.7-.1-.1.5-.7.6-.6 3.4 3.3 7.2 3.7 10.4 2 2.7 1.8 6.2 3.6 8.8 1.6-2.3-.7-4.5-1.8-6.5-3.2.3-.3.6-.5.8-.8 3.9 2.4 8.7 4.5 11.8 1-3.3-.9-6.6-2.2-9.6-3.9l.7-1.1c4.5 2.2 10.6 4.7 15.4 3.3-.6 1.8-2.9 2-4.8 1.9v.3zm-9.4-7.3c.2-.3.3-.6.4-1 1.5.4 3.1 0 4.2-1 3.4.9 9.1 2.2 12.5.9-.1 2.6-3 8.2-17.1 1.1zm18-55.2c-.6 6.8-9.4 17.7-15.2 23.3l-.2-1.3c2.4-2.4 2.7-5.4 2-6.8 7.2-9.1 11.7-17.3 11.8-20.6 1.4.8 1.9 2.9 1.6 5.4zm1.8-.6c2.9 1.2 4.3 5.8 2.8 9.2-3.3 7.7-11.3 15.5-19 19.7 0-.4-.1-.7-.1-1 2.2-1.3 3.6-3.6 3.7-6.1 4.5-4.8 13.1-15.3 12.6-21.8zm5.6 28c-3.8 4.9-15.7 8.4-21.7 9.8v-1c1.8-.5 3.4-1.7 4.3-3.4 6.1-2.6 14.2-7.8 18.1-13 1.9 2.2 1.3 5.4-.7 7.6zm-21.6 5.6v-1c1.5-.8 2.6-2.1 3.2-3.6 6.9-4.3 14.2-11.6 17.4-18.9 1.4 1.1 2.1 2.8 2.1 4.5-.1 7.6-15.7 15.9-22.7 19zm-.4 8.6c0-.3.1-.6.1-.9 1.7-.3 3.2-1.2 4.2-2.6 5.9-1.4 15.8-4.5 19.3-9.4.9 1.6.9 3.6 0 5.2-2.9 6.1-16.9 7.5-23.6 7.7z"/><use xlink:href="#a" width="71.3" height="43.1" x="-35.7" y="-21.5" transform="translate(68.005 42.725) scale(1.0001)" overflow="visible"/><path class="st0" d="M38.7 203.7c1-1.3 2.6-.3 3.8.9l-.5.7c-.1.1-.1.1 0 .2l.7.6c.1.1.3.1.3 0l1.2-1.6c-1.9-2.4-5-4.3-7-1.8-2.3 3.1 2.9 5.5 1.1 7.9-1.1 1.5-3.1 0-4.3-1.5l.5-.6c.1-.1.1-.1 0-.2l-.7-.6c-.1-.2-.2-.2-.3 0l-1.1 1.4c1.6 2.8 5.3 5.1 7.5 2.4 2.5-3.2-2.7-5.6-1-7.8h-.2zm11.4 16.4l-3.4-2 2-3.4 3.6 2.1.7-1.2-3.7-2.1 1.8-3.1 3.2 1.9c-.4.6-.3.4.4 1 .1.1.2.1.3 0l.9-1.6-6-3.6c0-.1 0-.1-.1-.1s-.1 0-.1.1c-.7 1-.6.8 0 1.2l-4.8 8.1c-.6-.3-.4-.2-1 .5-.1.1-.1.3 0 .3l6.3 3.7.9-1.6v-.1c-.9-.5-.8-.8-1.3-.1h.3zm13.2 6.3l-3.7-1.6 1.5-3.6 3.9 1.7.6-1.3-3.9-1.6 1.4-3.3 3.4 1.5c-.2.7-.2.5.6 1 .1.1.2.1.3 0l.7-1.7-6.5-2.8h-.1v.1c-.5 1.1-.5.9.1 1.2l-3.7 8.6c-.7-.2-.5-.1-.9.6-.1.1-.1.3 0 .3l6.7 2.9.7-1.7s0-.1-.1-.1c-.9-.4-.8-.7-1.2.1l.2-.3zm16.1-5.4c-.1 0-.1 0-.1.1-.4 1.1-.3.9.3 1.1l-4.9 3 1.1-4c.7.2.5.2.8-.7.1-.1 0-.2-.1-.2l-2.5-.7c0-.1-.1-.1-.2 0-.1 0-.1.1 0 .1-.4 1.2-.4 1 .2 1.2l-2.6 9c-.7-.1-.5-.1-.8.7-.1.2 0 .3.1.3l2.4.7c.1 0 .1 0 .1-.1.4-1.1.3-.9-.3-1.1l.8-3 1.3-.8 2 6.1 1.5.5h.1c.4-1.1.3-.9-.3-1.1l-2.1-6.2 4.7-2.8c.7.2.5.1.8-.7 0-.1 0-.2-.1-.3l-2.2-1.1zm26.8 3.7c-.1 0-.1 0-.1.1-.1 1.2-.1 1 .5 1l-2.5 8.6-1.7-9.7c0-.2-.1-.3-.3-.3-2-.2-1.2-1.1-4.3 9.6l-1.5-8.8c.7 0 .5 0 .6-.9 0-.1 0-.2-.2-.3l-2.5-.1c-.1 0-.1 0-.1.1-.2 1.2-.1 1 .5 1l1.9 10.3c0 .2.1.3.2.3 2.3.2 1.4 1.1 4.4-8.8l1.5 8.9c0 .2.1.3.2.3 2.3.2 1.3 1.4 4.9-10.2.7 0 .5 0 .6-.8 0-.1 0-.2-.1-.2l-2-.1zm11.4 9.9l-.8-9.3c.2 0 .6 0 .5-.2v-.8c0-.1 0-.2-.1-.2l-2.5.2c-.1 0-.1 0-.1.1 0 1.2 0 1 .7 1l.8 9.3c-.7.1-.5.1-.5.9 0 .1.1.2.2.2l2.6-.2c.1 0 .1 0 .1-.1v-.1c0-1.3 0-1.1-.6-1.1l-.3.3zm8.1-8.6c-.3-1.6 1.5-2.1 3.1-2.2l.2.8c0 .1.1.1.2.1l.9-.1c.2 0 .3-.1.2-.3l-.4-2c-3-.2-6.5 1-6 4 .8 3.8 6 1.4 6.7 4.4.4 1.9-2 2.3-4 2.2l-.2-.8-.1-.1-.9.1c-.2 0-.2.1-.2.2l.4 1.7c3.2.7 7.4-.6 6.7-4-.6-3.9-5.9-1.7-6.4-4.3l-.2.3zm21.5-3c-2-6-5.9-4.1-10.6-2.5-.1 0-.1.1-.1.1.1.2.2 1 .4.9l.4-.1 3 8.9c-.7.3-.5.2-.3 1 0 .1.1.2.2.2 4.5-1.5 9-2.4 7-8.5z"/><path class="st1" d="M141.8 229.6l-2.9-8.5c3.3-1.1 5.2-1.6 6.5 2.4 1.7 4.8-1.7 5.4-3.6 6.1z"/><path class="st0" d="M161.3 216.5c-1.6-3.1-4-4.6-6.8-3.2-3.3 1.6-2.8 4.9-1.6 7.4 1.8 3.5 4.2 4.5 6.8 3.2s3.3-3.9 1.6-7.4z"/><path class="st1" d="M159.1 222.6c-2.2 1.1-3.8-1-4.6-2.7s-1.6-4.2.6-5.3 3.7.9 4.6 2.7c1.2 2.4 1.2 4.4-.6 5.3z"/><path class="st0" d="M178.9 210.4l-5.7-7.4c.1-.1.5-.3.4-.4l-.4-.6c-.1-.1-.2-.1-.3-.1l-1.5 1.1c-.1.1-.2.2-.1.3l1.9 8.7c-.1-.1-7.8-4.7-7.9-4.6l-1.5 1c-.1 0-.1 0-.1.1s0 .1.1.1c.6 1 .5.9 1 .5l5.1 7.9c-.6.5-.4.3 0 1.1.1.1.2.2.3.1l2-1.4v-.1c-.6-1-.5-.8-1-.5l-4-6c7.3 4.4 6.4 4.3 7.4 3.6.2-.2.2-.4.1-.6l-1.6-7.2 4.3 5.8c-.6.5-.4.4 0 1.1.1.1.2.2.3.1l2-1.4c.1 0 .1 0 .1-.1s0-.1-.1-.1c-.5-1-.4-.8-.9-.5l.1-.5z"/><path class="st1" d="M129.3 37.6h-4.7v-7.4h4.5c.1.4.1.9 0 1.3h-3v1.6h2.5c.1.4.1.9 0 1.3h-2.5v1.9h3.1c.1.5.2.9.1 1.4v-.1zm6.7 0c-.6.1-1.2.1-1.8 0l-1.5-2.7h-.7v2.7c-.5.1-1 .1-1.5 0v-7.4c2.9-.2 5-.3 5 2.3 0 .9-.5 1.7-1.3 2.2l1.8 2.9z"/><path class="st0" d="M132.1 31.4v2.2c1 0 1.9.1 1.9-1.1s-.7-1.2-1.9-1.1z"/><path class="st1" d="M141.5 37.6h-4.6v-7.4h4.6c.1.4.1.9 0 1.3h-3v1.6h2.5c.1.4.1.9 0 1.3h-2.5v1.9h3.1c.1.5.2.9.1 1.4l-.2-.1zm-15.2 7.6v2.7c-.5.1-1 .1-1.5 0v-7.4c2.6-.1 5.2-.4 5.2 2.3 0 2.3-1.7 2.5-3.5 2.5l-.2-.1z"/><path class="st0" d="M126.3 41.7v2.2c1.1 0 2 .1 2-1.1s-.9-1.2-2-1.1z"/><path class="st1" d="M135.5 47.8h-4.6v-7.4h4.6c.1.4.1.9 0 1.3h-3v1.6h2.5c.1.4.1.9 0 1.3h-2.5v1.8h3.1c.1.4.1.9 0 1.3l-.1.1zm6.6 0c-.6.1-1.1.1-1.7 0l-1.5-2.7h-.6v2.7c-.5.1-1.1.1-1.6 0v-7.4c2.9-.2 5-.3 5 2.3 0 .9-.5 1.8-1.3 2.2l1.7 2.9z"/><path class="st0" d="M138.2 41.7v2.2c1 0 1.9.1 1.9-1.1s-.7-1.2-1.9-1.1z"/><path class="st1" d="M159.9 37.6c-.5.1-1.1.1-1.6 0l-.5-1.6H155l-.5 1.5c-.5.1-1.1.1-1.6 0l2.6-7.5c.5-.1 1-.1 1.5 0l2.9 7.6z"/><path class="st0" d="M157.3 34.7c-.3-1-.6-2-.8-3 0 .5-.7 2.5-.8 3h1.6z"/><path class="st1" d="M166.1 37.5c-.6.1-1.1.1-1.7 0l-1.5-2.7h-.7v2.6c-.5.1-1 .1-1.5 0V30c2.9-.2 5-.3 5 2.3 0 .9-.5 1.7-1.3 2.2l1.7 3z"/><path class="st0" d="M162.1 31.3v2.2c1 0 1.9 0 1.9-1.2s-.7-1.1-1.8-1.1l-.1.1z"/><path class="st1" d="M156.6 41.6h-2v6.1c-.5.1-1 .1-1.5 0v-6.1h-2c-.1-.5-.1-.9 0-1.4h5.5c.1.4.2.9.1 1.3l-.1.1zm5.6 6.1h-4.6v-7.4h4.5c.1.4.1.9 0 1.3h-3v1.6h2.6c.1.4.1.9 0 1.3H159v1.8h3.1c.1.4.1.9 0 1.3l.1.1zm1-.4c-.1-.5 0-.9.1-1.4 1.2.4 3.4.8 3.4-.4 0-.6-.3-.8-1.4-1.1-3.8-1.2-2-5.6 2.5-4.1.1.4.1.9 0 1.3-1-.3-3-.5-3 .5 0 .5.4.7 1.4 1 4.2 1.3 1.7 6.2-2.8 4.1l-.2.1zm-113-11.6c.3-1.7 1.6-3.9 1.6-5.6 2.4-.4 2 0-.9 7.4-.5.1-.9.1-1.4 0-2.9-7.8-2.9-7.5-1.6-7.5s.4 0 1.2 2c.5 1.2.9 2.4 1.1 3.7zm5.7 1.8c-.5.1-1 .1-1.5 0v-7.4c.5-.1 1.1-.1 1.6 0l-.1 7.4zm6.5-6.1h-2v6.1c-.5.1-1 .1-1.5 0v-6.1h-2c-.1-.5-.1-.9 0-1.4h5.5c.1.4.2.9.1 1.3l-.1.1zm-8.9 16.4c-.5.1-1.1.1-1.6 0l-.5-1.5h-2.7l-.5 1.5c-.5.1-1.1.1-1.6 0l2.6-7.5c.5-.1 1.1-.1 1.6 0l2.7 7.5z"/><path class="st0" d="M50.8 45l-.9-3c-.1.5-.7 2.5-.8 3h1.7z"/><path class="st1" d="M61.8 47.8c-.5.1-1 .1-1.5 0l-.1-4.5-1.6 3.8c-.4.1-.7.1-1.1 0l-1.6-3.7-.1 4.5c-.5.1-1 .1-1.5 0l.4-7.4c.4-.1.9-.1 1.3 0l2.2 5 2.2-5c.4-.1.9-.1 1.3 0l.1 7.3zm16.1-10.2h-4.7v-7.4h4.6c.1.4.1.9 0 1.3h-3v1.6h2.5c.1.4.1.9 0 1.3h-2.5v1.9h3.1c.1.5.1.9 0 1.4v-.1zm3.1-3.9c-2.6-3.6-2.4-3.6-1.3-3.6s.4-.2 1.4 1.3l.8 1.1c.6-.7 1.1-1.5 1.3-2.4.5-.1 1-.1 1.5 0-.1 1-.6 1.6-2 3.5 1.5 2.1 2.1 2.7 2.2 4h-.8c-1.3 0-.4-.1-1.2-1.4l-1-1.6c-.9 1.3-1.5 1.8-1.5 2.8-.5.1-1 .1-1.6 0 0-1.3.4-1.6 2.1-3.9v.2zm7.8-2.3c-2.8 0-2.9 5 0 5 1.6 0 1.8-.7 1.8.5v.5c-1.6.8-5.4.9-5.4-3.3 0-3.7 3.2-4.5 5.4-3.5v.5c0 1.4 0 .5-1.8.5v-.2zM75.7 48c-2 0-3.1-1.4-3.1-3.8s1.1-3.8 3.1-3.8 3.1 1.4 3.1 3.8-1 3.8-3.1 3.8z"/><path class="st0" d="M75.7 41.7c-.9 0-1.5.7-1.5 2.5s.6 2.5 1.5 2.5 1.5-.7 1.5-2.5-.5-2.5-1.5-2.5z"/><path class="st1" d="M84.3 47.9h-4.6v-7.5c.5-.1 1-.1 1.6 0v6.1h3c.1.4 0 .9 0 1.4zm3.4.1c-3.5 0-2.9-2.4-2.9-7.5.5-.1 1-.1 1.5 0 0 5.2-.3 6.3 1.2 6.3s1.3-1.2 1.3-6.3c.5-.1 1-.1 1.5 0 0 5 .6 7.5-2.9 7.5h.3z"/></svg>